<?xml version="1.0" encoding="UTF-8"?>
<!DOCTYPE svg PUBLIC '-//W3C//DTD SVG 1.0//EN'
          'http://www.w3.org/TR/2001/REC-SVG-20010904/DTD/svg10.dtd'>
<svg height="500.0" preserveAspectRatio="xMidYMid meet" version="1.0" viewBox="0.0 0.0 117.6 500.0" width="117.6" xmlns="http://www.w3.org/2000/svg" xmlns:xlink="http://www.w3.org/1999/xlink" zoomAndPan="magnify">
<g id="change1_1">
  <path fill="#f8d462" d="M16,278.3C9.4,209.1,0,138,0,68.6C0,47,5.6,30.2,16.9,18.1C28.2,6,43,0,61.4,0c22.4,0,37.2,7.8,44.8,23.2 c7.5,15.5,11.3,37.8,11.3,66.9c0,61.1-12,128.1-19.4,189.1c-2.8,22.8-5.8,40.5-11.7,52.8c-5.9,12.1-15.7,18.3-29.6,18.3 c-14,0-23.8-5.8-29.2-17.7C22.2,320.6,18.3,302.6,16,278.3z M58.4,383.3c-16.4,0-30.1,5.6-41.4,16.9C5.6,411.5,0,425.3,0,441.4 c0,18.5,5.9,32.9,17.7,43.2C29.5,494.8,43.3,500,59.2,500c15.6,0,29.2-5.2,40.9-15.6c11.6-10.4,17.5-24.8,17.5-43 c0-16.1-5.7-29.8-17.3-41.2C88.6,388.9,74.7,383.3,58.4,383.3z" />
</g>
</svg>
